<?xml version="1.0" encoding="utf-8"?>
<!-- Generator: Adobe Illustrator 22.1.0, SVG Export Plug-In . SVG Version: 6.00 Build 0)  -->
<svg version="1.1" id="Layer_1" xmlns="http://www.w3.org/2000/svg" xmlns:xlink="http://www.w3.org/1999/xlink" x="0px" y="0px"
	 viewBox="0 0 535 169" style="enable-background:new 0 0 535 169;" xml:space="preserve">
<style type="text/css">
	.st0{fill:url(#path555923_1_);}
	.st1{fill:url(#path555925_1_);}
	.st2{fill:url(#path555927_1_);}
	.st3{fill:url(#path555929_1_);}
	.st4{fill:url(#path555931_1_);}
	.st5{fill:url(#path555933_1_);}
	.st6{fill:url(#path555935_1_);}
	.st7{fill:url(#path555937_1_);}
	.st8{fill:url(#path555940_1_);}
	.st9{fill:url(#path555942_1_);}
	.st10{fill:url(#path555944_1_);}
	.st11{fill:url(#path555946_1_);}
	.st12{fill:url(#path555948_1_);}
	.st13{fill:url(#SVGID_1_);}
	.st14{fill:url(#SVGID_2_);}
	.st15{fill:url(#SVGID_3_);}
</style>
<g id="slogan" transform="translate(0 0)">
	<linearGradient id="path555923_1_" gradientUnits="userSpaceOnUse" x1="133.3141" y1="162.3864" x2="133.3141" y2="135.7464">
		<stop  offset="0" style="stop-color:#7B3400"/>
		<stop  offset="1" style="stop-color:#F56600"/>
	</linearGradient>
	<path id="path555923" class="st0" d="M142.7,139.7c-2.6-2.6-5.7-3.9-9.4-3.9c-3.6,0-6.8,1.3-9.4,3.9c-2.6,2.6-3.9,5.7-3.9,9.4
		s1.3,6.8,3.9,9.4s5.8,3.9,9.4,3.9c3.3,0,6.2-1.1,8.7-3.2v0.9c0,0.7,0.2,1.2,0.7,1.6c0.4,0.5,1,0.7,1.6,0.7c0.6,0,1.2-0.2,1.6-0.7
		c0.4-0.4,0.7-1,0.7-1.6v-11C146.6,145.4,145.3,142.3,142.7,139.7L142.7,139.7z M133.3,157.8c-2.4,0-4.5-0.8-6.1-2.5
		c-1.7-1.7-2.5-3.7-2.5-6.1c0-2.4,0.8-4.5,2.5-6.1c1.7-1.7,3.7-2.6,6.1-2.6s4.5,0.9,6.1,2.6c1.7,1.7,2.6,3.7,2.6,6.1
		c0,2.4-0.9,4.5-2.6,6.1C137.8,157,135.7,157.8,133.3,157.8z"/>
	<linearGradient id="path555925_1_" gradientUnits="userSpaceOnUse" x1="158.2397" y1="162.1944" x2="158.2397" y2="124.7064">
		<stop  offset="0" style="stop-color:#7B3400"/>
		<stop  offset="1" style="stop-color:#F56600"/>
	</linearGradient>
	<path id="path555925" class="st1" d="M153.6,125.4c-0.5,0.5-0.7,1.1-0.7,1.7v26.2c0,1.7,0.3,3.3,0.9,4.6c0.6,1.3,1.4,2.4,2.5,3.2
		c1.1,0.8,2.4,1.1,3.7,1.1h0.1c1,0,1.7-0.2,2.4-0.7c0.6-0.4,0.9-1,0.9-1.7c0-0.7-0.2-1.2-0.6-1.7c-0.4-0.4-0.9-0.7-1.5-0.7h-1.2
		c-0.7,0-1.3-0.4-1.7-1.2c-0.5-0.8-0.7-1.7-0.7-2.9v-26.2c0-0.7-0.2-1.2-0.7-1.7c-0.5-0.4-1.1-0.7-1.7-0.7
		C154.6,124.7,154.1,124.9,153.6,125.4L153.6,125.4z"/>
	<linearGradient id="path555927_1_" gradientUnits="userSpaceOnUse" x1="200.8758" y1="162.2904" x2="200.8758" y2="135.0744">
		<stop  offset="0" style="stop-color:#7B3400"/>
		<stop  offset="1" style="stop-color:#F56600"/>
	</linearGradient>
	<path id="path555927" class="st2" d="M216.2,138.1c-2-2-4.5-3-7.3-3c-2.9,0-5.3,1-7.3,3c-0.2,0.2-0.4,0.5-0.7,0.7
		c-0.2-0.2-0.4-0.5-0.6-0.7c-2.1-2-4.5-3-7.4-3s-5.3,1-7.3,3c-2,2.1-3,4.5-3,7.4v14.4c0,0.7,0.2,1.2,0.7,1.7
		c0.5,0.5,1.1,0.7,1.7,0.7c0.6,0,1.2-0.2,1.7-0.7c0.5-0.5,0.7-1,0.7-1.7v-14.4c0-1.5,0.5-2.9,1.6-4c1.1-1.1,2.4-1.6,3.9-1.6
		c1.6,0,2.9,0.5,4,1.6c1.1,1.1,1.6,2.4,1.6,4v14.4c0,0.7,0.2,1.2,0.7,1.7c0.5,0.5,1,0.7,1.7,0.7s1.2-0.2,1.7-0.7
		c0.5-0.5,0.7-1,0.7-1.7v-14.4c0-1,0.2-2,0.8-2.8c0.5-0.9,1.2-1.5,2-2c0.9-0.5,1.8-0.8,2.8-0.8c1.5,0,2.9,0.5,3.9,1.6
		c1.1,1.1,1.7,2.4,1.7,4v14.4c0,0.7,0.2,1.2,0.7,1.7c0.5,0.5,1.1,0.7,1.7,0.7c0.6,0,1.2-0.2,1.7-0.7c0.5-0.5,0.7-1,0.7-1.7v-14.4
		C219.3,142.6,218.2,140.2,216.2,138.1L216.2,138.1z"/>
	<linearGradient id="path555929_1_" gradientUnits="userSpaceOnUse" x1="230.3477" y1="162.1944" x2="230.3477" y2="125.3304">
		<stop  offset="0" style="stop-color:#7B3400"/>
		<stop  offset="1" style="stop-color:#F56600"/>
	</linearGradient>
	<path id="path555929" class="st3" d="M228.6,136.6c-0.5,0.5-0.7,1.1-0.7,1.8v21.4c0,0.7,0.2,1.3,0.7,1.8s1.1,0.7,1.8,0.7
		c0.7,0,1.3-0.2,1.8-0.7c0.4-0.5,0.7-1.1,0.7-1.8v-21.4c0-0.7-0.2-1.3-0.7-1.8c-0.5-0.4-1.1-0.7-1.8-0.7
		C229.6,135.9,229.1,136.2,228.6,136.6z M232.6,126.3c-0.6-0.6-1.3-1-2.2-1s-1.6,0.3-2.3,1s-0.9,1.3-0.9,2.2s0.3,1.6,0.9,2.3
		c0.6,0.6,1.4,0.9,2.3,0.9s1.6-0.3,2.2-0.9c0.6-0.6,1-1.4,1-2.3S233.2,126.9,232.6,126.3z"/>
	<linearGradient id="path555931_1_" gradientUnits="userSpaceOnUse" x1="254.2149" y1="162.3384" x2="254.2149" y2="135.3144">
		<stop  offset="0" style="stop-color:#7B3400"/>
		<stop  offset="1" style="stop-color:#F56600"/>
	</linearGradient>
	<path id="path555931" class="st4" d="M264.1,162.3c0.7,0,1.2-0.2,1.7-0.7c0.5-0.5,0.7-1.1,0.7-1.7v-12.3c0-3.4-1.2-6.2-3.6-8.6
		c-2.4-2.4-5.3-3.6-8.7-3.6c-3.4,0-6.3,1.2-8.7,3.6c-2.4,2.4-3.6,5.3-3.6,8.6v12.3c0,0.7,0.2,1.2,0.7,1.7c0.5,0.5,1.1,0.7,1.7,0.7
		c0.7,0,1.2-0.2,1.7-0.7c0.5-0.5,0.7-1.1,0.7-1.7v-12.3c0-2,0.8-3.8,2.2-5.2c1.4-1.5,3.2-2.2,5.3-2.2c2.1,0,3.8,0.7,5.3,2.2
		c1.4,1.4,2.2,3.2,2.2,5.2v12.4c0,0.6,0.2,1.2,0.7,1.7S263.5,162.3,264.1,162.3L264.1,162.3z"/>
	<linearGradient id="path555933_1_" gradientUnits="userSpaceOnUse" x1="286.4538" y1="162.4824" x2="286.4538" y2="135.8424">
		<stop  offset="0" style="stop-color:#7B3400"/>
		<stop  offset="1" style="stop-color:#F56600"/>
	</linearGradient>
	<path id="path555933" class="st5" d="M296.3,135.8c-0.7,0-1.2,0.2-1.7,0.7s-0.7,1-0.7,1.7v12c0,2.1-0.8,3.8-2.2,5.3
		c-1.5,1.5-3.2,2.2-5.3,2.2c-2.1,0-3.8-0.7-5.3-2.2c-1.4-1.4-2.2-3.2-2.2-5.3v-12c0-0.7-0.2-1.2-0.7-1.7c-0.5-0.5-1-0.7-1.7-0.7
		s-1.2,0.2-1.7,0.7s-0.7,1-0.7,1.7v12c0,3.4,1.2,6.3,3.6,8.7c2.4,2.4,5.3,3.6,8.7,3.6c3.4,0,6.3-1.2,8.7-3.6
		c2.4-2.4,3.6-5.3,3.6-8.7v-12c0-0.7-0.2-1.2-0.7-1.7C297.5,136.1,297,135.8,296.3,135.8L296.3,135.8z"/>
	<linearGradient id="path555935_1_" gradientUnits="userSpaceOnUse" x1="314.6125" y1="162.1944" x2="314.6125" y2="127.5864">
		<stop  offset="0" style="stop-color:#7B3400"/>
		<stop  offset="1" style="stop-color:#F56600"/>
	</linearGradient>
	<path id="path555935" class="st6" d="M318.3,157.4c-1.4,0-2.6-0.5-3.6-1.5c-1-1-1.5-2.2-1.5-3.6v-11.3h4.3c0.6,0,1.1-0.2,1.5-0.6
		c0.4-0.4,0.6-0.9,0.6-1.5c0-0.6-0.2-1.1-0.6-1.5c-0.4-0.4-1-0.6-1.5-0.6h-4.3V130c0-0.7-0.2-1.2-0.7-1.7c-0.5-0.5-1-0.7-1.7-0.7
		s-1.2,0.2-1.7,0.7c-0.5,0.5-0.7,1-0.7,1.7v22.4c0,2.7,1,5,2.9,7c1.9,1.9,4.2,2.9,7,2.9c0.7,0,1.2-0.2,1.7-0.7s0.7-1.1,0.7-1.7
		c0-0.7-0.2-1.2-0.7-1.7S319,157.4,318.3,157.4L318.3,157.4z"/>
	<linearGradient id="path555937_1_" gradientUnits="userSpaceOnUse" x1="338.4872" y1="162.3864" x2="338.4872" y2="135.7464">
		<stop  offset="0" style="stop-color:#7B3400"/>
		<stop  offset="1" style="stop-color:#F56600"/>
	</linearGradient>
	<path id="path555937" class="st7" d="M338.5,162.4c3.7,0,6.8-1.3,9.4-3.9c2.6-2.6,3.9-5.7,3.9-9.4s-1.3-6.8-3.9-9.4
		c-2.6-2.6-5.7-3.9-9.4-3.9s-6.8,1.3-9.4,3.9c-2.6,2.6-3.9,5.7-3.9,9.4s1.3,6.8,3.9,9.4C331.6,161.1,334.8,162.4,338.5,162.4z
		 M338.5,140.4c2.4,0,4.5,0.9,6.2,2.5c1.7,1.7,2.5,3.8,2.5,6.2c0,2.4-0.9,4.5-2.5,6.1c-1.7,1.7-3.8,2.5-6.2,2.5s-4.5-0.8-6.1-2.5
		c-1.7-1.7-2.5-3.7-2.5-6.1c0-2.4,0.8-4.5,2.5-6.2C334,141.2,336.1,140.4,338.5,140.4z"/>
</g>
<g id="title" transform="translate(0 0)">
	<linearGradient id="path555940_1_" gradientUnits="userSpaceOnUse" x1="39.6782" y1="113.9064" x2="39.6782" y2="35.9844">
		<stop  offset="0" style="stop-color:#143F8F"/>
		<stop  offset="1" style="stop-color:#427FED"/>
	</linearGradient>
	<path id="path555940" class="st8" d="M71.8,48.6C64.5,40.2,55.2,36,44.2,36c-7.3,0-13.9,1.7-19.7,5.1c-5.9,3.4-10.4,8-13.6,13.9
		S6.2,67.6,6.2,75c0,7.3,1.5,14,4.9,19.9c3.4,5.9,8,10.5,13.9,13.9s12.5,5.1,19.9,5.1c10.1,0,18.5-3.1,25.3-9.4
		c1.1-1.1,1.7-2.4,1.7-3.8c0-1.8-1-3.5-2.7-5.1c-1.1-0.8-2.4-1.3-3.7-1.3c-1.7,0-3.5,0.7-5.2,2c-3.9,3.4-9.1,4.9-15.4,4.9
		c-4.9,0-9.3-1.1-13.1-3.4c-3.8-2.2-6.7-5.3-8.8-9.3C20.9,84.7,20,80.1,20,75c0-7.9,2.2-14.3,6.7-19.1s10.2-7.3,17.6-7.3
		c3.5,0,6.6,0.7,9.4,1.8c2.8,1.1,5.3,2.9,7.7,5.5c1.4,1.7,3.2,2.5,5.5,2.5c1.1,0,2.2-0.3,3.2-1c2-1.4,3.1-3.1,3.1-5.2
		C73.2,50.9,72.6,49.7,71.8,48.6L71.8,48.6z"/>
	<linearGradient id="path555942_1_" gradientUnits="userSpaceOnUse" x1="129.3324" y1="113.9064" x2="129.3324" y2="35.9844">
		<stop  offset="0" style="stop-color:#143F8F"/>
		<stop  offset="1" style="stop-color:#427FED"/>
	</linearGradient>
	<path id="path555942" class="st9" d="M129.3,113.9c10.8,0,19.9-3.8,27.5-11.4c7.6-7.6,11.5-16.7,11.5-27.5s-3.9-19.9-11.5-27.5
		c-7.6-7.6-16.7-11.5-27.5-11.5c-10.8,0-19.9,3.9-27.5,11.5C94.2,55.1,90.4,64.2,90.4,75c0,10.8,3.8,19.9,11.4,27.5
		C109.3,110.1,118.5,113.9,129.3,113.9z M129.3,49.5c7,0,13.1,2.5,18.1,7.4c4.9,5.1,7.4,11.1,7.4,18.1c0,7-2.5,13.1-7.4,18
		c-5.1,5.1-11.1,7.4-18.1,7.4c-7,0-13.1-2.4-18-7.4c-5.1-4.9-7.4-11-7.4-18c0-7,2.4-13.1,7.4-18.1C116.2,52,122.2,49.5,129.3,49.5z"
		/>
	<linearGradient id="path555944_1_" gradientUnits="userSpaceOnUse" x1="214.3841" y1="113.3448" x2="214.3841" y2="34.44">
		<stop  offset="0" style="stop-color:#143F8F"/>
		<stop  offset="1" style="stop-color:#427FED"/>
	</linearGradient>
	<path id="path555944" class="st10" d="M232.3,34.4c-11.8,0-21.8,4.2-30.2,12.5c-8.3,8.3-12.4,18.3-12.4,30v29.6c0,2,0.6,3.5,2,4.8
		c1.3,1.4,2.8,2,4.8,2c1.8,0,3.4-0.6,4.6-2c1.4-1.3,2.1-2.8,2.1-4.8V77c0-8,2.8-14.9,8.4-20.5c5.8-5.8,12.6-8.6,20.6-8.6
		c1.8,0,3.4-0.7,4.8-2c1.3-1.4,2-2.9,2-4.8c0-1.8-0.7-3.5-2-4.8C235.7,35.1,234.1,34.4,232.3,34.4z"/>
	<linearGradient id="path555946_1_" gradientUnits="userSpaceOnUse" x1="284.2792" y1="113.9064" x2="284.2792" y2="35.9844">
		<stop  offset="0" style="stop-color:#143F8F"/>
		<stop  offset="1" style="stop-color:#427FED"/>
	</linearGradient>
	<path id="path555946" class="st11" d="M301,38.9c-4.8-2-10.2-2.9-16.3-2.9c-5.1,0-9.7,0.8-14,2.4c-4.5,1.7-8,4.1-10.7,7.2
		c-2.8,3.2-4.1,7.2-4.1,11.7c0,11.4,9,18.8,27,22.2c6.9,1.4,11.8,2.9,14.7,4.9c2.8,2,4.4,4.4,4.4,7.2c0,3.1-1.5,5.5-4.5,7.2
		c-2.9,1.8-7,2.7-12.4,2.7c-4.1,0-7.9-0.7-11.4-2.1c-3.7-1.4-6.3-3.2-8-5.2c-1.7-1.7-3.5-2.5-5.3-2.5c-1.5,0-3.2,0.7-4.9,2
		c-2,1.4-2.8,3.2-2.8,5.5c0,1.7,0.6,3.2,1.8,4.4c3.1,3.2,7.6,5.8,13.2,7.7c5.6,2,11.5,2.9,18,2.9c6.3,0,11.8-1,16.3-2.9
		c4.5-2,8-4.8,10.4-8.3c2.2-3.5,3.5-7.4,3.5-11.8c0-5.8-2.2-10.5-6.5-14.2c-4.2-3.7-11.5-6.5-21.6-8.6c-5.1-1-8.8-2-11.4-3.1
		c-2.7-1.1-4.5-2.2-5.3-3.5c-1-1.3-1.4-2.8-1.4-4.8c0-2.5,1.3-4.6,4.1-6c2.8-1.4,6.3-2.2,10.7-2.2c3.7,0,6.9,0.6,9.5,1.4
		c2.5,0.8,5.1,2.4,7.4,4.5c2,1.8,4.1,2.7,6.6,2.7c1.5,0,2.8-0.3,3.9-1.1c1.5-1.3,2.4-2.7,2.4-4.4c0-1.4-0.7-2.9-1.8-4.5
		C309.7,43.7,305.8,40.9,301,38.9L301,38.9z"/>
	<linearGradient id="path555948_1_" gradientUnits="userSpaceOnUse" x1="342.5409" y1="113.3448" x2="342.5409" y2="5.5176">
		<stop  offset="0" style="stop-color:#143F8F"/>
		<stop  offset="1" style="stop-color:#427FED"/>
	</linearGradient>
	<path id="path555948" class="st12" d="M337.3,38.5c-1.4,1.4-2,3.1-2,5.2v62.5c0,2.1,0.6,3.8,2,5.2s3.1,2,5.2,2c2.1,0,3.8-0.6,5.2-2
		c1.3-1.4,2-3.1,2-5.2V43.7c0-2.1-0.7-3.8-2-5.2c-1.4-1.3-3.1-2-5.2-2C340.4,36.5,338.8,37.2,337.3,38.5z M349,8.3
		c-1.8-1.8-3.9-2.8-6.5-2.8c-2.5,0-4.8,1-6.6,2.8c-1.8,1.8-2.7,3.9-2.7,6.5s0.8,4.8,2.7,6.6c1.8,1.8,4.1,2.7,6.6,2.7
		c2.5,0,4.6-0.8,6.5-2.7c1.8-1.8,2.8-4.1,2.8-6.6C351.8,12.3,350.8,10.2,349,8.3z"/>
</g>
<g>
	<linearGradient id="SVGID_1_" gradientUnits="userSpaceOnUse" x1="430.0752" y1="123.0159" x2="430.0752" y2="29.4539">
		<stop  offset="0" style="stop-color:#143F8F"/>
		<stop  offset="1" style="stop-color:#427FED"/>
	</linearGradient>
	<path class="st13" d="M449.6,29.5h-5.2v36.4c0,1.4,1.2,2.6,2.6,2.6h26v-5.2h-23.4V29.5z M384.6,91.8h91V97h-91V91.8z M400.2,117.8
		h5.2v5.2h-5.2V117.8z"/>
	<linearGradient id="SVGID_2_" gradientUnits="userSpaceOnUse" x1="448.2877" y1="162.0002" x2="448.2877" y2="6">
		<stop  offset="0" style="stop-color:#143F8F"/>
		<stop  offset="1" style="stop-color:#427FED"/>
	</linearGradient>
	<path class="st14" d="M497.8,99.7c-2.9-4.9-1.3-11.3,3.6-14.2c1.6-1,3.4-1.5,5.3-1.5c1.4,0,2.6-1.2,2.6-2.6s-1.2-2.6-2.6-2.6h-1.5
		c1-4.3,1.5-8.6,1.5-13C506.8,32.8,480,6,447,6s-59.8,26.7-59.8,59.7c0,4.4,0.5,8.8,1.5,13.2c-8.6,0.7-15,8.2-14.3,16.8
		c0.7,8,7.3,14.3,15.4,14.3h4c-5.3,5.9-5.3,14.9,0,20.8h-9.2c-8.6,0-15.6,7-15.6,15.6s7,15.6,15.6,15.6h111.8
		c17.2,0,31.2-13.9,31.2-31.1C527.6,114.2,514.5,100.4,497.8,99.7z M447,11.3c30.1,0,54.5,24.4,54.6,54.6c0,4.4-0.5,8.7-1.6,13h-5.4
		c1.2-4.2,1.8-8.6,1.8-13c0-27.3-22.1-49.4-49.4-49.4c-27.3,0-49.4,22.1-49.4,49.4c0,4.4,0.6,8.8,1.8,13H394
		c-7.2-29.2,10.6-58.8,39.9-66C438.1,11.8,442.6,11.3,447,11.3z M491.2,65.8c0,4.4-0.7,8.8-2,13h-84.4c-1.3-4.2-2-8.6-2-13
		c0-24.4,19.8-44.2,44.2-44.2C471.4,21.7,491.2,41.4,491.2,65.8z M389.8,104.8c-5.7,0-10.4-4.7-10.4-10.4c0-5.7,4.7-10.4,10.4-10.4
		h105.3c-2.6,2.9-4,6.6-4,10.4c0,1.9,0.4,3.8,1,5.5c-4.7,0.6-9.1,2.3-13,4.9H389.8z M466.2,123c-0.7,2.5-1,5.2-1,7.8h-59.8
		c-5.7,0-10.4-4.7-10.4-10.4c0-5.7,4.7-10.4,10.4-10.4h67.8c-2.1,2.3-3.8,5-5.1,7.8h-57.5v5.2H466.2z M384.6,156.8
		c-5.7,0-10.4-4.7-10.4-10.4s4.7-10.4,10.4-10.4h81c0.5,2.7,1.3,5.3,2.4,7.8h-88.7v5.2h91.7c2.2,3.1,4.9,5.7,8.1,7.8H384.6z
		 M496.3,156.8c-5.5,0-10.9-1.8-15.4-5.1c1.3-8.5,9.3-14.3,17.8-12.9c6.7,1.1,11.9,6.3,12.9,12.9C507.3,155,501.9,156.8,496.3,156.8
		z M488.6,125.6c0-4.3,3.5-7.8,7.8-7.8c4.3,0,7.8,3.5,7.8,7.8s-3.5,7.8-7.8,7.8C492,133.4,488.6,129.9,488.6,125.6z M516,147.7
		c-1.8-5.5-5.8-10-11.1-12.4c5.4-4.7,5.9-12.9,1.2-18.3c-4.7-5.4-12.9-5.9-18.3-1.2c-5.4,4.7-5.9,12.9-1.2,18.3
		c0.4,0.4,0.8,0.8,1.2,1.2c-5.3,2.4-9.3,6.9-11.1,12.4c-4.1-4.7-6.3-10.7-6.3-16.9c0-14.4,11.6-26,26-26s26,11.6,26,26
		C522.3,137,520.1,143,516,147.7z"/>
	<linearGradient id="SVGID_3_" gradientUnits="userSpaceOnUse" x1="446.9684" y1="97.0265" x2="446.9684" y2="68.4381">
		<stop  offset="0" style="stop-color:#143F8F"/>
		<stop  offset="1" style="stop-color:#427FED"/>
	</linearGradient>
	<path class="st15" d="M480.8,91.8h5.2V97h-5.2V91.8z M408,68.4h5.2v5.2H408V68.4z M418.4,68.4h5.2v5.2h-5.2V68.4z M428.8,68.4h5.2
		v5.2h-5.2V68.4z"/>
</g>
<g>
</g>
<g>
</g>
<g>
</g>
<g>
</g>
<g>
</g>
<g>
</g>
<g>
</g>
<g>
</g>
<g>
</g>
<g>
</g>
<g>
</g>
<g>
</g>
<g>
</g>
<g>
</g>
<g>
</g>
</svg>
